ply
format ascii 1.0
comment Created in Blender version 4.4.0
element vertex 195
property float x
property float y
property float z
property float nx
property float ny
property float nz
property float s
property float t
element face 186
property list uchar uint vertex_indices
end_header
11.124634 -2.6111997e-09 0.21567348 0.036501605 6.0489225e-07 0.9993336 1 1
-4.4822693e-05 0.042075805 0.21152936 -0.03650161 0.19495973 0.98013175 0.96875 0.5
-4.4822693e-05 -2.6111997e-09 0.21567348 -0.036502335 -6.0191536e-07 0.9993335 1 0.5
11.124634 0.042075805 0.21152936 0.036502343 0.19496089 0.9801315 0.96875 1
-4.4822693e-05 0.08253468 0.1992563 -0.036502343 0.38242772 0.9232641 0.9375 0.5
11.124634 0.08253468 0.1992563 0.0365005 0.38242885 0.92326367 0.9375 1
-4.4822693e-05 0.11982177 0.17932594 -0.036499627 0.55519944 0.8309159 0.90625 0.5
11.124634 0.11982177 0.17932594 0.03650234 0.5552006 0.83091503 0.90625 1
-4.4822693e-05 0.15250418 0.15250418 -0.03650233 0.70663506 0.706636 0.875 0.5
11.124634 0.15250418 0.15250418 0.036501627 0.7066361 0.70663506 0.875 1
-4.4822693e-05 0.17932594 0.119821765 -0.0365016 0.8309153 0.5552004 0.84375 0.5
11.124634 0.17932594 0.119821765 0.036502335 0.83091575 0.5551996 0.84375 1
-4.4822693e-05 0.1992563 0.08253467 -0.036502343 0.9232636 0.38242882 0.8125 0.5
11.124634 0.1992563 0.08253467 0.036499646 0.92326397 0.38242808 0.8125 1
-4.4822693e-05 0.21152936 0.04207581 -0.036499403 0.9801316 0.19496098 0.78125 0.5
11.124634 0.21152936 0.04207581 0.036502343 0.98013186 0.19495948 0.78125 1
-4.4822693e-05 0.21567346 -4.0172318e-10 -0.036502343 0.9993335 8.835238e-07 0.75 0.5
11.124634 0.21567346 -4.0172318e-10 0.03650161 0.9993336 -8.8114234e-07 0.75 1
-4.4822693e-05 0.21152936 -0.04207581 -0.036501613 0.98013186 -0.19495949 0.71875 0.5
11.124634 0.21152936 -0.04207581 0.036502335 0.9801315 -0.19496097 0.71875 1
-4.4822693e-05 0.1992563 -0.08253467 -0.03650235 0.92326397 -0.38242793 0.6875 0.5
11.124634 0.1992563 -0.08253467 0.036499403 0.9232638 -0.38242894 0.6875 1
-4.4822693e-05 0.17932594 -0.119821765 -0.03649962 0.8309158 -0.5551997 0.65625 0.5
11.124634 0.17932594 -0.119821765 0.03650234 0.83091515 -0.5552004 0.65625 1
-4.4822693e-05 0.15250418 -0.15250418 -0.03650233 0.706636 -0.70663506 0.625 0.5
11.124634 0.15250418 -0.15250418 0.036501627 0.70663506 -0.7066361 0.625 1
-4.4822693e-05 0.11982177 -0.17932594 -0.0365016 0.5552005 -0.8309151 0.59375 0.5
11.124634 0.11982177 -0.17932594 0.036502335 0.5551994 -0.8309158 0.59375 1
-4.4822693e-05 0.08253468 -0.1992563 -0.036502343 0.38242885 -0.92326355 0.5625 0.5
11.124634 0.08253468 -0.1992563 0.036499638 0.38242787 -0.9232642 0.5625 1
-4.4822693e-05 0.042075805 -0.21152936 -0.036500506 0.19496095 -0.9801316 0.53125 0.5
11.124634 0.042075805 -0.21152936 0.036502343 0.19495972 -0.9801317 0.53125 1
-4.4822693e-05 -2.6111997e-09 -0.21567348 -0.036502335 6.066783e-07 -0.9993335 0.5 0.5
11.124634 -2.6111997e-09 -0.21567348 0.036501605 -6.0012934e-07 -0.9993336 0.5 1
-4.4822693e-05 -0.042075813 -0.21152936 -0.03650161 -0.1949598 -0.9801317 0.46875 0.5
11.124634 -0.042075813 -0.21152936 0.036502343 -0.19496098 -0.9801315 0.46875 1
-4.4822693e-05 -0.08253466 -0.1992563 -0.036502343 -0.38242784 -0.92326397 0.4375 0.5
11.124634 -0.08253466 -0.1992563 0.036500506 -0.3824289 -0.92326367 0.4375 1
-4.4822693e-05 -0.11982176 -0.17932594 -0.036499623 -0.55519944 -0.830916 0.40625 0.5
11.124634 -0.11982176 -0.17932594 0.03650234 -0.5552006 -0.83091503 0.40625 1
-4.4822693e-05 -0.15250418 -0.15250418 -0.03650233 -0.70663506 -0.706636 0.375 0.5
11.124634 -0.15250418 -0.15250418 0.036501627 -0.7066361 -0.70663506 0.375 1
-4.4822693e-05 -0.17932594 -0.119821765 -0.0365016 -0.8309153 -0.5552004 0.34375 0.5
11.124634 -0.17932594 -0.119821765 0.036502335 -0.83091575 -0.5551996 0.34375 1
-4.4822693e-05 -0.1992563 -0.08253467 -0.036502343 -0.9232636 -0.38242882 0.3125 0.5
11.124634 -0.1992563 -0.08253467 0.036499653 -0.923264 -0.3824281 0.3125 1
-4.4822693e-05 -0.21152937 -0.04207581 -0.036499403 -0.9801316 -0.19496098 0.28125 0.5
11.124634 -0.21152937 -0.04207581 0.036502343 -0.9801317 -0.19495974 0.28125 1
-4.4822693e-05 -0.21567348 -4.0172318e-10 -0.03650233 -0.9993335 -6.0191536e-07 0.25 0.5
11.124634 -0.21567348 -4.0172318e-10 0.036501605 -0.9993336 6.0012934e-07 0.25 1
-4.4822693e-05 -0.21152937 0.04207581 -0.03650161 -0.9801317 0.19495976 0.21875 0.5
11.124634 -0.21152937 0.04207581 0.036502343 -0.9801315 0.19496097 0.21875 1
-4.4822693e-05 -0.1992563 0.08253467 -0.03650235 -0.92326397 0.38242793 0.1875 0.5
11.124634 -0.1992563 0.08253467 0.036499403 -0.9232638 0.38242894 0.1875 1
-4.4822693e-05 -0.17932594 0.119821765 -0.036499623 -0.83091587 0.5551996 0.15625 0.5
11.124634 -0.17932594 0.119821765 0.03650234 -0.83091515 0.5552004 0.15625 1
-4.4822693e-05 -0.15250418 0.15250418 -0.03650233 -0.706636 0.70663506 0.125 0.5
11.124634 -0.15250418 0.15250418 0.036501627 -0.70663506 0.7066361 0.125 1
-4.4822693e-05 -0.11982176 0.17932594 -0.036501598 -0.5552005 0.8309151 0.09375 0.5
11.124634 -0.11982176 0.17932594 0.036502335 -0.5551994 0.8309158 0.09375 1
-4.4822693e-05 -0.08253466 0.1992563 -0.036502343 -0.3824289 0.92326355 0.0625 0.5
11.124634 -0.08253466 -0.1992563 0.036500506 -0.3824289 -0.92326367 0.15815598 0.028268918
11.124634 0.1992563 -0.08253467 0.036499403 0.9232638 -0.38242894 0.47173107 0.15815598
11.124634 0.08253468 0.1992563 0.0365005 0.38242885 0.92326367 0.34184402 0.47173107
11.124634 -0.08253466 0.1992563 0.03649964 -0.3824279 0.92326415 0.0625 1
-4.4822693e-05 -0.042075813 0.21152936 -0.03650051 -0.194961 0.9801316 0.03125 0.5
11.124634 -0.042075813 0.21152936 0.036502343 -0.19495982 0.9801317 0.03125 1
-4.4822693e-05 -2.6111997e-09 0.21567348 -0.036502335 -6.0191536e-07 0.9993335 0 0.5
-4.4822693e-05 0.042075805 -0.21152936 -0.036500506 0.19496095 -0.9801316 0.79682165 0.014611542
-4.4822693e-05 -0.21152937 -0.04207581 -0.036499403 -0.9801316 -0.19496098 0.51461154 0.20317832
-4.4822693e-05 -0.042075813 0.21152936 -0.03650051 -0.194961 0.9801316 0.70317835 0.48538846
11.124634 0.042075805 0.21152936 0.036502343 0.19496089 0.9801315 0.29682168 0.48538846
11.124634 -2.6111997e-09 0.21567348 0.036501605 6.0489225e-07 0.9993336 0.25 0.49
11.124634 -0.042075813 0.21152936 0.036502343 -0.19495982 0.9801317 0.20317832 0.48538846
11.124634 -0.08253466 0.1992563 0.03649964 -0.3824279 0.92326415 0.15815598 0.47173107
11.124634 -0.11982176 0.17932594 0.036502335 -0.5551994 0.8309158 0.11666314 0.4495527
11.124634 -0.15250418 0.15250418 0.036501627 -0.70663506 0.7066361 0.080294386 0.41970563
11.124634 -0.17932594 0.119821765 0.03650234 -0.83091515 0.5552004 0.0504473 0.38333684
11.124634 -0.1992563 0.08253467 0.036499403 -0.9232638 0.38242894 0.028268918 0.34184402
11.124634 -0.21152937 0.04207581 0.036502343 -0.9801315 0.19496097 0.014611542 0.29682168
11.124634 -0.21567348 -4.0172318e-10 0.036501605 -0.9993336 6.0012934e-07 0.010000005 0.25
11.124634 -0.21152937 -0.04207581 0.036502343 -0.9801317 -0.19495974 0.014611542 0.20317832
11.124634 -0.1992563 -0.08253467 0.036499653 -0.923264 -0.3824281 0.028268918 0.15815598
11.124634 -0.17932594 -0.119821765 0.036502335 -0.83091575 -0.5551996 0.0504473 0.11666314
11.124634 -0.15250418 -0.15250418 0.036501627 -0.7066361 -0.70663506 0.080294386 0.080294386
11.124634 -0.11982176 -0.17932594 0.03650234 -0.5552006 -0.83091503 0.11666314 0.0504473
11.124634 -0.042075813 -0.21152936 0.036502343 -0.19496098 -0.9801315 0.20317832 0.014611542
11.124634 -2.6111997e-09 -0.21567348 0.036501605 -6.0012934e-07 -0.9993336 0.25 0.010000005
11.124634 0.042075805 -0.21152936 0.036502343 0.19495972 -0.9801317 0.29682168 0.014611542
11.124634 0.08253468 -0.1992563 0.036499638 0.38242787 -0.9232642 0.34184402 0.028268918
11.124634 0.11982177 -0.17932594 0.036502335 0.5551994 -0.8309158 0.38333684 0.0504473
11.124634 0.15250418 -0.15250418 0.036501627 0.70663506 -0.7066361 0.41970563 0.080294386
11.124634 0.17932594 -0.119821765 0.03650234 0.83091515 -0.5552004 0.4495527 0.11666314
11.124634 0.21152936 -0.04207581 0.036502335 0.9801315 -0.19496097 0.48538846 0.20317832
11.124634 0.21567346 -4.0172318e-10 0.03650161 0.9993336 -8.8114234e-07 0.49 0.25
11.124634 0.21152936 0.04207581 0.036502343 0.98013186 0.19495948 0.48538846 0.29682168
11.124634 0.1992563 0.08253467 0.036499646 0.92326397 0.38242808 0.47173107 0.34184402
11.124634 0.17932594 0.119821765 0.036502335 0.83091575 0.5551996 0.4495527 0.38333684
11.124634 0.15250418 0.15250418 0.036501627 0.7066361 0.70663506 0.41970563 0.41970563
11.124634 0.11982177 0.17932594 0.03650234 0.5552006 0.83091503 0.38333684 0.4495527
11.124634 -2.6111997e-09 0.21567348 0.036501605 6.0489225e-07 0.9993336 0 1
-4.4822693e-05 -2.6111997e-09 0.21567348 -0.036502335 -6.0191536e-07 0.9993335 0.75 0.49
-4.4822693e-05 0.042075805 0.21152936 -0.03650161 0.19495973 0.98013175 0.79682165 0.48538846
-4.4822693e-05 0.08253468 0.1992563 -0.036502343 0.38242772 0.9232641 0.841844 0.47173107
-4.4822693e-05 0.11982177 0.17932594 -0.036499627 0.55519944 0.8309159 0.88333684 0.4495527
-4.4822693e-05 0.15250418 0.15250418 -0.03650233 0.70663506 0.706636 0.9197056 0.41970563
-4.4822693e-05 0.17932594 0.119821765 -0.0365016 0.8309153 0.5552004 0.9495527 0.38333684
-4.4822693e-05 0.1992563 0.08253467 -0.036502343 0.9232636 0.38242882 0.97173107 0.34184402
-4.4822693e-05 0.21152936 0.04207581 -0.036499403 0.9801316 0.19496098 0.98538846 0.29682168
-4.4822693e-05 0.21567346 -4.0172318e-10 -0.036502343 0.9993335 8.835238e-07 0.99 0.25
-4.4822693e-05 0.21152936 -0.04207581 -0.036501613 0.98013186 -0.19495949 0.98538846 0.20317832
-4.4822693e-05 0.1992563 -0.08253467 -0.03650235 0.92326397 -0.38242793 0.97173107 0.15815598
-4.4822693e-05 0.17932594 -0.119821765 -0.03649962 0.8309158 -0.5551997 0.9495527 0.11666314
-4.4822693e-05 0.15250418 -0.15250418 -0.03650233 0.706636 -0.70663506 0.9197056 0.080294386
-4.4822693e-05 0.11982177 -0.17932594 -0.0365016 0.5552005 -0.8309151 0.88333684 0.0504473
-4.4822693e-05 0.08253468 -0.1992563 -0.036502343 0.38242885 -0.92326355 0.841844 0.028268918
-4.4822693e-05 -2.6111997e-09 -0.21567348 -0.036502335 6.066783e-07 -0.9993335 0.75 0.010000005
-4.4822693e-05 -0.042075813 -0.21152936 -0.03650161 -0.1949598 -0.9801317 0.70317835 0.014611542
-4.4822693e-05 -0.08253466 -0.1992563 -0.036502343 -0.38242784 -0.92326397 0.658156 0.028268918
-4.4822693e-05 -0.11982176 -0.17932594 -0.036499623 -0.55519944 -0.830916 0.61666316 0.0504473
-4.4822693e-05 -0.15250418 -0.15250418 -0.03650233 -0.70663506 -0.706636 0.5802944 0.080294386
-4.4822693e-05 -0.17932594 -0.119821765 -0.0365016 -0.8309153 -0.5552004 0.5504473 0.11666314
-4.4822693e-05 -0.1992563 -0.08253467 -0.036502343 -0.9232636 -0.38242882 0.52826893 0.15815598
-4.4822693e-05 -0.21567348 -4.0172318e-10 -0.03650233 -0.9993335 -6.0191536e-07 0.51 0.25
-4.4822693e-05 -0.21152937 0.04207581 -0.03650161 -0.9801317 0.19495976 0.51461154 0.29682168
-4.4822693e-05 -0.1992563 0.08253467 -0.03650235 -0.92326397 0.38242793 0.52826893 0.34184402
-4.4822693e-05 -0.17932594 0.119821765 -0.036499623 -0.83091587 0.5551996 0.5504473 0.38333684
-4.4822693e-05 -0.15250418 0.15250418 -0.03650233 -0.706636 0.70663506 0.5802944 0.41970563
-4.4822693e-05 -0.11982176 0.17932594 -0.036501598 -0.5552005 0.8309151 0.61666316 0.4495527
-4.4822693e-05 -0.08253466 0.1992563 -0.036502343 -0.3824289 0.92326355 0.658156 0.47173107
11.0139265 -6.457878e-09 0.5500602 -0.50328255 0 0.8641219 0.25 0.49
12.114047 -6.457878e-09 -7.948156e-09 1 3.3531082e-09 6.5571896e-08 0.25 0.25
11.0139265 0.10731142 0.53949094 -0.5032689 0.16858806 0.8475249 0.29682168 0.48538846
11.0139265 0.21049894 0.5081894 -0.5032775 0.33071396 0.79833585 0.34184402 0.47173107
11.0139265 0.3055971 0.45735833 -0.50323045 0.48009384 0.71851856 0.38333684 0.4495527
11.0139265 0.3889513 0.3889513 -0.5032825 0.611026 0.6110271 0.41970563 0.41970563
11.0139265 0.45735833 0.3055971 -0.5032653 0.71850353 0.48007983 0.4495527 0.38333684
11.0139265 0.5081894 0.21049894 -0.5033305 0.7983016 0.33071598 0.47173107 0.34184402
11.0139265 0.53949094 0.10731142 -0.5032277 0.84754914 0.1685891 0.48538846 0.29682168
11.0139265 0.5500602 -7.948156e-09 -0.50328285 0.86412174 0 0.49 0.25
11.0139265 0.53949094 -0.107311435 -0.5032668 0.8475272 -0.16858295 0.48538846 0.20317832
11.0139265 0.5081894 -0.21049894 -0.5032352 0.7983878 -0.33065277 0.47173107 0.15815598
11.0139265 0.45735833 -0.3055971 -0.50322986 0.71851856 -0.48009452 0.4495527 0.11666314
11.0139265 0.3889513 -0.3889513 -0.50328225 0.61102486 -0.61102825 0.41970563 0.080294386
11.0139265 0.3055971 -0.45735833 -0.5032692 0.4800767 -0.71850294 0.38333684 0.0504473
11.0139265 0.21049894 -0.5081894 -0.5032775 0.33071396 -0.79833585 0.34184402 0.028268918
11.0139265 0.10731142 -0.53949094 -0.50324774 0.16859043 -0.84753704 0.29682168 0.014611542
11.0139265 -6.457878e-09 -0.5500602 -0.50328255 0 -0.8641219 0.25 0.010000005
11.0139265 -0.107311435 -0.53949094 -0.5032687 -0.16858807 -0.84752494 0.20317832 0.014611542
11.0139265 -0.21049894 -0.5081894 -0.50327754 -0.3307139 -0.7983358 0.15815598 0.028268918
11.0139265 -0.3055971 -0.45735833 -0.5032299 -0.4800957 -0.7185178 0.11666314 0.0504473
11.0139265 -0.3889513 -0.3889513 -0.5032825 -0.611026 -0.6110271 0.080294386 0.080294386
11.0139265 -0.45735833 -0.3055971 -0.50326747 -0.71850055 -0.48008212 0.0504473 0.11666314
11.0139265 -0.5081894 -0.21049894 -0.5032352 -0.79838777 -0.33065274 0.028268918 0.15815598
11.0139265 -0.53949094 -0.107311435 -0.5032243 -0.8475515 -0.16858768 0.014611542 0.20317832
11.0139265 -0.5500602 -7.948156e-09 -0.50328285 -0.86412174 0 0.010000005 0.25
11.0139265 -0.53949094 0.10731142 -0.503264 -0.84752905 0.1685823 0.014611542 0.29682168
11.0139265 -0.5081894 0.21049894 -0.5033305 -0.7983016 0.33071595 0.028268918 0.34184402
11.0139265 -0.45735833 0.3055971 -0.5032313 -0.7185169 0.48009568 0.0504473 0.38333684
11.0139265 -0.3889513 0.3889513 -0.50328225 -0.61102486 0.61102825 0.080294386 0.41970563
11.0139265 -0.3055971 0.45735833 -0.503269 -0.48007667 0.718503 0.11666314 0.4495527
11.0139265 -0.21049894 0.5081894 -0.5032776 -0.3307139 0.7983358 0.15815598 0.47173107
11.0139265 0.10731142 -0.53949094 -0.50324774 0.16859043 -0.84753704 0.79682165 0.014611542
11.0139265 -0.53949094 -0.107311435 -0.5032243 -0.8475515 -0.16858768 0.51461154 0.20317832
11.0139265 -0.107311435 0.53949094 -0.50324756 -0.16859066 0.8475371 0.70317835 0.48538846
11.0139265 -0.107311435 0.53949094 -0.50324756 -0.16859066 0.8475371 0.20317832 0.48538846
11.0139265 -6.457878e-09 0.5500602 -0.50328255 0 0.8641219 0.75 0.49
11.0139265 0.10731142 0.53949094 -0.5032689 0.16858806 0.8475249 0.79682165 0.48538846
11.0139265 0.21049894 0.5081894 -0.5032775 0.33071396 0.79833585 0.841844 0.47173107
11.0139265 0.3055971 0.45735833 -0.50323045 0.48009384 0.71851856 0.88333684 0.4495527
11.0139265 0.3889513 0.3889513 -0.5032825 0.611026 0.6110271 0.9197056 0.41970563
11.0139265 0.45735833 0.3055971 -0.5032653 0.71850353 0.48007983 0.9495527 0.38333684
11.0139265 0.5081894 0.21049894 -0.5033305 0.7983016 0.33071598 0.97173107 0.34184402
11.0139265 0.53949094 0.10731142 -0.5032277 0.84754914 0.1685891 0.98538846 0.29682168
11.0139265 0.5500602 -7.948156e-09 -0.50328285 0.86412174 0 0.99 0.25
11.0139265 0.53949094 -0.107311435 -0.5032668 0.8475272 -0.16858295 0.98538846 0.20317832
11.0139265 0.5081894 -0.21049894 -0.5032352 0.7983878 -0.33065277 0.97173107 0.15815598
11.0139265 0.45735833 -0.3055971 -0.50322986 0.71851856 -0.48009452 0.9495527 0.11666314
11.0139265 0.3889513 -0.3889513 -0.50328225 0.61102486 -0.61102825 0.9197056 0.080294386
11.0139265 0.3055971 -0.45735833 -0.5032692 0.4800767 -0.71850294 0.88333684 0.0504473
11.0139265 0.21049894 -0.5081894 -0.5032775 0.33071396 -0.79833585 0.841844 0.028268918
11.0139265 -6.457878e-09 -0.5500602 -0.50328255 0 -0.8641219 0.75 0.010000005
11.0139265 -0.107311435 -0.53949094 -0.5032687 -0.16858807 -0.84752494 0.70317835 0.014611542
11.0139265 -0.21049894 -0.5081894 -0.50327754 -0.3307139 -0.7983358 0.658156 0.028268918
11.0139265 -0.3055971 -0.45735833 -0.5032299 -0.4800957 -0.7185178 0.61666316 0.0504473
11.0139265 -0.3889513 -0.3889513 -0.5032825 -0.611026 -0.6110271 0.5802944 0.080294386
11.0139265 -0.45735833 -0.3055971 -0.50326747 -0.71850055 -0.48008212 0.5504473 0.11666314
11.0139265 -0.5081894 -0.21049894 -0.5032352 -0.79838777 -0.33065274 0.52826893 0.15815598
11.0139265 -0.5500602 -7.948156e-09 -0.50328285 -0.86412174 0 0.51 0.25
11.0139265 -0.53949094 0.10731142 -0.503264 -0.84752905 0.1685823 0.51461154 0.29682168
11.0139265 -0.5081894 0.21049894 -0.5033305 -0.7983016 0.33071595 0.52826893 0.34184402
11.0139265 -0.45735833 0.3055971 -0.5032313 -0.7185169 0.48009568 0.5504473 0.38333684
11.0139265 -0.3889513 0.3889513 -0.50328225 -0.61102486 0.61102825 0.5802944 0.41970563
11.0139265 -0.3055971 0.45735833 -0.503269 -0.48007667 0.718503 0.61666316 0.4495527
11.0139265 -0.21049894 0.5081894 -0.5032776 -0.3307139 0.7983358 0.658156 0.47173107
3 0 1 2
3 3 4 1
3 5 6 4
3 7 8 6
3 9 10 8
3 11 12 10
3 13 14 12
3 15 16 14
3 17 18 16
3 19 20 18
3 21 22 20
3 23 24 22
3 25 26 24
3 27 28 26
3 29 30 28
3 31 32 30
3 33 34 32
3 35 36 34
3 37 38 36
3 39 40 38
3 41 42 40
3 43 44 42
3 45 46 44
3 47 48 46
3 49 50 48
3 51 52 50
3 53 54 52
3 55 56 54
3 57 58 56
3 59 60 58
3 61 62 63
3 64 65 60
3 66 67 65
3 68 69 70
3 0 3 1
3 3 5 4
3 5 7 6
3 7 9 8
3 9 11 10
3 11 13 12
3 13 15 14
3 15 17 16
3 17 19 18
3 19 21 20
3 21 23 22
3 23 25 24
3 25 27 26
3 27 29 28
3 29 31 30
3 31 33 32
3 33 35 34
3 35 37 36
3 37 39 38
3 39 41 40
3 41 43 42
3 43 45 44
3 45 47 46
3 47 49 48
3 49 51 50
3 51 53 52
3 53 55 54
3 55 57 56
3 57 59 58
3 59 64 60
3 63 71 72
3 72 73 74
3 74 75 76
3 76 77 78
3 78 79 80
3 80 81 82
3 82 83 84
3 84 85 61
3 61 86 87
3 87 88 89
3 89 90 91
3 91 92 62
3 62 93 94
3 94 95 96
3 96 97 98
3 98 99 63
3 63 72 74
3 74 76 78
3 78 80 82
3 82 84 61
3 61 87 89
3 89 91 62
3 62 94 96
3 96 98 63
3 63 74 78
3 78 82 61
3 61 89 62
3 62 96 63
3 63 78 61
3 64 66 65
3 66 100 67
3 70 101 102
3 102 103 104
3 104 105 106
3 106 107 108
3 108 109 110
3 110 111 112
3 112 113 114
3 114 115 68
3 68 116 117
3 117 118 119
3 119 120 121
3 121 122 69
3 69 123 124
3 124 125 126
3 126 127 128
3 128 129 70
3 70 102 104
3 104 106 108
3 108 110 112
3 112 114 68
3 68 117 119
3 119 121 69
3 69 124 126
3 126 128 70
3 70 104 108
3 108 112 68
3 68 119 69
3 69 126 70
3 70 108 68
3 130 131 132
3 132 131 133
3 133 131 134
3 134 131 135
3 135 131 136
3 136 131 137
3 137 131 138
3 138 131 139
3 139 131 140
3 140 131 141
3 141 131 142
3 142 131 143
3 143 131 144
3 144 131 145
3 145 131 146
3 146 131 147
3 147 131 148
3 148 131 149
3 149 131 150
3 150 131 151
3 151 131 152
3 152 131 153
3 153 131 154
3 154 131 155
3 155 131 156
3 156 131 157
3 157 131 158
3 158 131 159
3 159 131 160
3 160 131 161
3 162 163 164
3 161 131 165
3 165 131 130
3 164 166 167
3 167 168 169
3 169 170 171
3 171 172 173
3 173 174 175
3 175 176 177
3 177 178 179
3 179 180 162
3 162 181 182
3 182 183 184
3 184 185 186
3 186 187 163
3 163 188 189
3 189 190 191
3 191 192 193
3 193 194 164
3 164 167 169
3 169 171 173
3 173 175 177
3 177 179 162
3 162 182 184
3 184 186 163
3 163 189 191
3 191 193 164
3 164 169 173
3 173 177 162
3 162 184 163
3 163 191 164
3 164 173 162
