ply
format ascii 1.0
comment Created in Blender version 4.4.0
element vertex 133
property float x
property float y
property float z
property float nx
property float ny
property float nz
property float s
property float t
element face 140
property list uchar uint vertex_indices
end_header
-0.95 1 0.95 -0.34157798 0.87558335 0.34158206 0.61875 0.25625002
0.95 1 -0.95 0.34157798 0.87558347 -0.34158203 0.38125 0.49374998
-0.95 1 -0.95 -0.3415873 0.8755793 -0.34158328 0.38125 0.25624996
1 -0.95 -0.95 0.87557983 -0.34158868 -0.34158027 0.38125002 0.74375004
1 -0.6671428 0.95 0.8755799 0.34158865 0.34158024 0.61875 0.7083928
1 -0.95 0.95 0.87557906 -0.34158736 0.34158358 0.6187499 0.7437499
-1 -0.95 0.95 -0.87557983 -0.34158868 0.34158027 0.61875 0.006250002
-1 -0.6671428 -0.95 -0.87557983 0.34158868 -0.34158027 0.38124996 0.041607145
-1 -0.95 -0.95 -0.8755792 -0.34158736 -0.34158358 0.38124996 0.0062500015
-0.45728606 0.6171428 0.95 -0.25490394 -0.8268778 0.5012957 0.6000135 0.4898727
-0.95 0.6171428 -0.95 -0.3415885 -0.8755767 -0.34158868 0.39998645 0.39007524
-0.45728606 0.6171428 -0.95 -0.25490394 -0.82688147 -0.50128937 0.39998654 0.48987263
0.95 -1 0.95 0.34157798 -0.87558347 0.34158203 0.61875 0.75625
-0.95 -1 -0.95 -0.34157798 -0.87558347 -0.34158203 0.38125 0.9937499
0.95 -1 -0.95 0.34158733 -0.8755793 -0.3415833 0.38125 0.75624996
-1 0.95 -0.95 -0.87557983 0.34158868 -0.34158027 0.38125002 0.24375
-1 0.6671428 0.95 -0.8755799 -0.34158865 0.34158024 0.61875 0.20839283
-1 0.95 0.95 -0.87557906 0.34158736 0.34158358 0.6187499 0.24374998
-0.35728604 -0.6671428 1 -0.099105574 0.09910562 0.99012935 0.7946608 0.70839286
0.95 -0.95 1 0.34158695 -0.34159517 0.8755747 0.63125 0.74375004
0.41457254 -0.6671428 1 0.099100746 0.09910414 0.99013007 0.6981784 0.70839286
-0.35728604 0.6671428 -1 -0.09910564 -0.09910563 -0.99012935 0.20533928 0.5416072
0.95 0.95 -1 0.34158695 0.34159517 -0.8755747 0.36875 0.50625
0.41457254 0.6671428 -1 0.099100746 -0.09910414 -0.99013007 0.30182156 0.54160714
-0.40728605 0.5671428 0.95 -0.8268807 -0.25490195 0.50129175 0.6000134 0.5101273
-0.40728605 -0.5671428 -0.95 -0.8268804 0.254902 -0.5012921 0.39998657 0.7398727
-0.40728605 -0.5671428 0.95 -0.82688063 0.25490063 0.50129265 0.6000134 0.7398727
-0.95 -0.6171428 0.95 -0.3415885 0.8755767 0.34158868 0.6000134 0.8599247
-0.45728606 -0.6171428 -0.95 -0.25490394 0.8268778 -0.5012957 0.3999865 0.76012725
-0.95 -0.6171428 -0.95 -0.34158733 0.8755792 -0.34158346 0.39998648 0.85992455
0.51457256 0.6171428 0.95 0.25490576 -0.8268786 0.50129324 0.6000134 0.2601273
0.95 0.6171428 -0.95 0.34159043 -0.8755767 -0.34158668 0.3999865 0.34832153
0.95 0.6171428 0.95 0.34158462 -0.8755796 0.34158492 0.6000135 0.34832162
0.51457256 -0.6171428 -0.95 0.25490576 0.8268786 -0.50129324 0.39998648 0.98987263
0.95 -0.6171428 0.95 0.34159043 0.8755767 0.34158668 0.60001343 0.90167844
0.95 -0.6171428 -0.95 0.34158468 0.8755796 -0.34158495 0.39998654 0.90167856
0.46457255 0.5671428 0.95 0.8268803 -0.25490093 0.50129306 0.6000134 0.23987268
0.46457255 -0.5671428 -0.95 0.8268802 0.2549009 -0.501293 0.39998657 0.010127318
0.46457255 0.5671428 -0.95 0.8268809 -0.25490168 -0.5012915 0.39998657 0.23987268
1 0.95 0.95 0.87557983 0.34158868 0.34158027 0.61875 0.5
0.95 1 0.95 0.34158733 0.8755793 0.3415833 0.61875 0.49374998
0.95 0.95 1 0.34159112 0.3415948 0.87557334 0.625 0.49375
0.95 1 -0.95 0.34157798 0.87558347 -0.34158203 0.36875004 0.5
1 0.95 -0.95 0.8755792 0.34158736 -0.34158358 0.37500003 0.50625
1 -0.95 0.95 0.87557906 -0.34158736 0.34158358 0.61875 0.75
0.95 -0.95 1 0.34158695 -0.34159517 0.8755747 0.625 0.75625
0.95 -0.95 -1 0.34159112 -0.3415948 -0.87557334 0.36875 0.7437501
1 -0.95 -0.95 0.87557983 -0.34158868 -0.34158027 0.375 0.74375004
0.95 -1 -0.95 0.34158733 -0.8755793 -0.3415833 0.36875004 0.75000006
-0.95 1 0.95 -0.34157798 0.87558335 0.34158206 0.61875 0.25
-0.95 0.95 1 -0.34158006 0.3415883 0.8755802 0.625 0.24374999
-0.95 1 -0.95 -0.3415873 0.8755793 -0.34158328 0.13125 0.5
-0.95 0.95 -1 -0.34158716 0.34159085 -0.8755764 0.13124998 0.50624996
-1 0.95 -0.95 -0.87557983 0.34158868 -0.34158027 0.125 0.50625
-1 -0.95 0.95 -0.87557983 -0.34158868 0.34158027 0.61875 1
-0.95 -1 0.95 -0.34158733 -0.8755793 0.3415833 0.61875 0.99375
-0.95 -0.95 1 -0.34158716 -0.34159085 0.8755764 0.625 0.99375
-0.95 -0.95 -1 -0.34158006 -0.3415883 -0.8755802 0.13125 0.74375
-0.95 -1 -0.95 -0.34157798 -0.87558347 -0.34158203 0.13125 0.75
-1 -0.95 -0.95 -0.8755792 -0.34158736 -0.34158358 0.125 0.74375004
-0.45728606 0.6171428 0.95 -0.25490394 -0.8268778 0.5012957 0.80716074 0.5478571
-0.40728605 0.5671428 0.95 -0.8268807 -0.25490195 0.50129175 0.8009107 0.55410707
-0.35728604 0.6671428 1 -0.09910084 -0.0991042 0.99013007 0.79466075 0.5416072
-0.95 -0.6171428 0.95 -0.3415885 0.8755767 0.34158868 0.86875 0.70214283
-1 -0.6671428 0.95 -0.87557906 0.34158736 0.34158358 0.87500006 0.70839286
-0.95 -0.6671428 1 -0.34158033 0.34158853 0.87557995 0.8687499 0.7083928
-0.95 0.6171428 0.95 -0.34158733 -0.8755792 0.34158346 0.61875 0.20214285
-0.95 0.6671428 1 -0.34158573 -0.3415853 0.87557906 0.625 0.20839286
-0.40728605 -0.5671428 0.95 -0.82688063 0.25490063 0.50129265 0.8009107 0.6958928
-0.45728606 -0.6171428 0.95 -0.25490394 0.82688147 0.50128937 0.80716074 0.70214283
-0.95 0.6671428 -1 -0.34158033 -0.34158853 -0.87557995 0.13125001 0.5416071
-0.95 0.6171428 -0.95 -0.3415885 -0.8755767 -0.34158868 0.13125 0.54785717
-1 0.6671428 -0.95 -0.8755792 -0.34158736 -0.34158358 0.125 0.5416072
-0.95 -0.6671428 -1 -0.34158573 0.3415853 -0.87557906 0.13125002 0.7083928
-1 -0.6671428 -0.95 -0.87557983 0.34158868 -0.34158027 0.125 0.7083928
-0.95 -0.6171428 -0.95 -0.34158733 0.8755792 -0.34158346 0.13125001 0.70214283
-0.40728605 0.5671428 -0.95 -0.8268808 -0.25490057 -0.5012922 0.19908926 0.5541071
-0.45728606 0.6171428 -0.95 -0.25490394 -0.82688147 -0.50128937 0.19283925 0.54785717
-0.45728606 -0.6171428 -0.95 -0.25490394 0.8268778 -0.5012957 0.19283925 0.70214283
-0.40728605 -0.5671428 -0.95 -0.8268804 0.254902 -0.5012921 0.19908924 0.6958928
-0.35728604 -0.6671428 -1 -0.09910076 0.09910419 -0.99013007 0.20533927 0.70839286
0.51457256 0.6171428 0.95 0.25490576 -0.8268786 0.50129324 0.6856785 0.54785717
0.41457254 0.6671428 1 0.099103995 -0.09910405 0.99012977 0.69817847 0.54160714
0.46457255 0.5671428 0.95 0.8268803 -0.25490093 0.50129306 0.69192845 0.5541071
0.51457256 -0.6171428 0.95 0.2549017 0.8268811 0.5012911 0.6856784 0.70214283
0.46457255 -0.5671428 0.95 0.8268809 0.25490168 0.5012915 0.69192845 0.6958928
0.95 0.6171428 0.95 0.34158462 -0.8755796 0.34158492 0.61875 0.54785717
1 0.6671428 0.95 0.87557906 -0.34158736 0.34158358 0.61875004 0.54160714
0.95 0.6671428 1 0.34158093 -0.34158742 0.87558013 0.625 0.54160714
0.95 -0.6171428 0.95 0.34159043 0.8755767 0.34158668 0.61875 0.70214283
0.95 -0.6671428 1 0.341586 0.34158385 0.87557954 0.625 0.70839286
0.51457256 -0.6171428 -0.95 0.25490576 0.8268786 -0.50129324 0.31432158 0.70214283
0.41457254 -0.6671428 -1 0.099103995 0.09910405 -0.99012977 0.3018216 0.70839286
0.46457255 -0.5671428 -0.95 0.8268802 0.2549009 -0.501293 0.30807158 0.6958929
0.51457256 0.6171428 -0.95 0.2549017 -0.8268811 -0.5012911 0.31432152 0.5478571
0.46457255 0.5671428 -0.95 0.8268809 -0.25490168 -0.5012915 0.30807152 0.5541071
0.95 -0.6171428 -0.95 0.34158468 0.8755796 -0.34158495 0.36875004 0.70214283
1 -0.6671428 -0.95 0.8755792 0.34158736 -0.34158358 0.37500003 0.70839286
0.95 -0.6671428 -1 0.34158093 0.34158742 -0.87558013 0.3687501 0.70839304
1 0.6671428 -0.95 0.87557983 -0.34158868 -0.34158027 0.375 0.54160714
0.95 0.6171428 -0.95 0.34159043 -0.8755767 -0.34158668 0.36875 0.54785717
0.95 0.6671428 -1 0.341586 -0.34158385 -0.87557954 0.36874998 0.54160714
0.95 0.6671428 1 0.34158093 -0.34158742 0.87558013 0.6312501 0.5416073
1 0.95 0.95 0.87557983 0.34158868 0.34158027 0.61875 0.5062501
0.95 0.95 1 0.34159112 0.3415948 0.87557334 0.6312501 0.5062499
-0.95 0.6671428 1 -0.34158573 -0.3415853 0.87557906 0.8687501 0.5416072
-1 -0.95 0.95 -0.87557983 -0.34158868 0.34158027 0.875 0.74375004
-0.95 -0.95 1 -0.34158716 -0.34159085 0.8755764 0.8687499 0.7437499
0.95 -0.6671428 1 0.341586 0.34158385 0.87557954 0.63124996 0.7083928
-1 -0.95 -0.95 -0.8755792 -0.34158736 -0.34158358 0.38125002 1
-1 0.6671428 -0.95 -0.8755792 -0.34158736 -0.34158358 0.38125002 0.20839287
-0.95 -0.6171428 -0.95 -0.34158733 0.8755792 -0.34158346 0.38125002 0.04785715
-1 -0.6671428 0.95 -0.87557906 0.34158736 0.34158358 0.61875004 0.041607153
-0.95 -0.6171428 0.95 -0.3415885 0.8755767 0.34158868 0.61875 0.04785715
1 0.6671428 -0.95 0.87557983 -0.34158868 -0.34158027 0.38124996 0.54160714
1 0.95 -0.95 0.8755792 0.34158736 -0.34158358 0.38124996 0.50624996
1 -0.6671428 -0.95 0.8755792 0.34158736 -0.34158358 0.38125002 0.70839286
0.95 0.6171428 -0.95 0.34159043 -0.8755767 -0.34158668 0.38125002 0.54785717
-0.45728606 -0.6171428 0.95 -0.25490394 0.82688147 0.50128937 0.60001343 0.76012737
0.51457256 -0.6171428 -0.95 0.25490576 0.8268786 -0.50129324 0.39998657 0
0.46457255 -0.5671428 0.95 0.8268809 0.25490168 0.5012915 0.60001343 0.010127318
0.51457256 -0.6171428 0.95 0.2549017 0.8268811 0.5012911 0.6000135 0
-0.95 0.6171428 0.95 -0.34158733 -0.8755792 0.34158346 0.60001343 0.39007527
-0.95 0.95 1 -0.34158006 0.3415883 0.8755802 0.86875004 0.50625
-0.40728605 0.5671428 -0.95 -0.8268808 -0.25490057 -0.5012922 0.39998657 0.5101273
0.51457256 0.6171428 -0.95 0.2549017 -0.8268811 -0.5012911 0.39998657 0.2601273
0.51457256 -0.6171428 0.95 0.2549017 0.8268811 0.5012911 0.60001343 0.98987263
0.95 0.6171428 0.95 0.34158462 -0.8755796 0.34158492 0.63124996 0.54785717
-0.95 0.95 1 -0.34158006 0.3415883 0.8755802 0.625 0.25625
-0.95 0.6171428 0.95 -0.34158733 -0.8755792 0.34158346 0.86875 0.54785717
0.95 -0.6171428 0.95 0.34159043 0.8755767 0.34158668 0.63125 0.70214283
-0.95 0.6171428 -0.95 -0.3415885 -0.8755767 -0.34158868 0.38125002 0.20214285
0.95 -0.6171428 -0.95 0.34158468 0.8755796 -0.34158495 0.38125002 0.70214283
3 0 1 2
3 3 4 5
3 6 7 8
3 9 10 11
3 12 13 14
3 15 16 17
3 18 19 20
3 21 22 23
3 24 25 26
3 27 28 29
3 30 31 32
3 33 34 35
3 36 37 38
3 39 40 41
3 42 43 22
3 12 44 45
3 46 47 48
3 49 17 50
3 51 52 53
3 54 55 56
3 57 58 59
3 60 61 62
3 63 64 65
3 16 66 67
3 68 69 18
3 70 71 72
3 73 74 75
3 76 77 21
3 78 79 80
3 81 82 83
3 84 85 20
3 86 87 88
3 4 89 90
3 91 92 93
3 94 95 23
3 96 97 98
3 99 100 101
3 81 102 82
3 102 103 104
3 0 41 40
3 16 50 17
3 105 60 62
3 68 62 61
3 65 69 63
3 65 106 107
3 56 12 45
3 4 19 5
3 108 84 20
3 20 83 82
3 58 46 48
3 14 5 12
3 109 55 54
3 2 17 0
3 70 53 52
3 110 66 16
3 74 57 59
3 111 112 113
3 91 98 92
3 98 3 46
3 78 73 75
3 80 76 21
3 70 77 71
3 52 42 22
3 114 22 115
3 101 94 23
3 23 93 92
3 116 89 4
3 115 40 103
3 117 87 86
3 11 24 9
3 25 118 26
3 38 30 36
3 119 120 121
3 103 114 115
3 0 40 1
3 3 116 4
3 6 112 7
3 9 122 10
3 12 55 13
3 15 110 16
3 82 102 104
3 104 123 105
3 104 105 62
3 82 104 62
3 18 65 107
3 82 62 18
3 19 108 20
3 20 82 18
3 18 107 19
3 92 98 46
3 46 57 73
3 46 73 80
3 92 46 80
3 21 70 52
3 92 80 21
3 22 101 23
3 23 92 21
3 21 52 22
3 24 124 25
3 27 118 28
3 30 125 31
3 33 126 34
3 36 120 37
3 81 127 102
3 102 87 103
3 0 128 41
3 16 67 50
3 105 129 60
3 68 18 62
3 65 18 69
3 65 64 106
3 56 55 12
3 4 108 19
3 108 130 84
3 20 85 83
3 58 57 46
3 14 3 5
3 109 13 55
3 2 15 17
3 70 72 53
3 110 131 66
3 74 73 57
3 111 7 112
3 91 96 98
3 98 116 3
3 78 80 73
3 80 79 76
3 70 21 77
3 52 51 42
3 114 101 22
3 101 100 94
3 23 95 93
3 116 132 89
3 115 1 40
3 117 114 87
3 11 124 24
3 25 28 118
3 38 125 30
3 119 37 120
3 103 87 114
