ply
format ascii 1.0
comment Created in Blender version 4.4.0
element vertex 151
property float x
property float y
property float z
property float nx
property float ny
property float nz
property float s
property float t
element face 224
property list uchar uint vertex_indices
end_header
1.4901161e-07 0.21213198 -0.21213204 1.9384906e-06 0.7188599 -0.69515496 0.7499999 0.24999994
0.04393399 0.106066026 -0.27716386 0.15425704 0.3724093 -0.9151591 0.6875 0.12500006
0 0.11480504 -0.27716386 -6.36876e-07 0.40309212 -0.9151594 0.75 0.12500006
1.1920929e-07 0.3 0 3.711358e-06 1 -5.0494666e-09 0.74999994 0.5
0.106066026 0.25606602 -0.11480504 0.3548511 0.8566966 -0.37436855 0.6875 0.375
0 0.27716386 -0.11480504 -4.1654366e-06 0.92728007 -0.3743685 0.75 0.375
0 0.21213204 0.21213204 1.4886335e-06 0.71886224 0.6951526 0.75 0.75
0.106066026 0.25606602 0.11480504 0.354851 0.8566967 0.37436825 0.6875 0.625
0 0.27716386 0.11480504 -4.0146097e-06 0.9272801 0.3743682 0.75 0.625
6.3329935e-08 0.11480498 0.27716386 4.017217e-07 0.4030919 0.9151595 0.7499999 0.87500006
0 0 0.3 -7.018687e-08 -1.1106494e-08 1 0.71874994 1
0.04393399 0.106066026 0.27716386 0.15425625 0.37240785 0.9151599 0.6875 0.875
0 0 -0.3 4.9362194e-09 -2.2212987e-08 -1 0.71875 0
0.08117942 0.19598444 -0.21213204 0.27509394 0.66413593 -0.69515955 0.6875 0.25
0.11480504 0.27716386 0 0.3826867 0.9238782 2.5247329e-09 0.6875 0.5
0.08117942 0.19598444 0.21213204 0.27509952 0.6641407 0.6951528 0.6875 0.75
0 0 0.3 -7.018687e-08 -1.1106494e-08 1 0.65625 1
0.081179425 0.08117941 0.27716386 0.28502882 0.28502944 0.9151595 0.625 0.875
0 0 -0.3 4.9362194e-09 -2.2212987e-08 -1 0.65625 0
0.081179425 0.08117941 -0.27716386 0.28502867 0.2850283 -0.91515994 0.625 0.12500006
0.15 0.14999999 -0.21213204 0.50830996 0.50831443 -0.69515276 0.625 0.25
0.19598445 0.19598445 0.11480504 0.6556832 0.65568894 0.37436834 0.625 0.625
0.21213205 0.21213204 0 0.7071093 0.7071044 0 0.625 0.5
0.15 0.14999999 0.21213204 0.508312 0.50830954 0.69515496 0.625 0.75
0.19598445 0.19598445 -0.11480504 0.65568346 0.6556887 -0.37436834 0.625 0.375
0.19598445 0.081179395 -0.21213204 0.6641403 0.27509585 -0.6951546 0.5625 0.25
0.25606602 0.10606601 0.11480504 0.85669637 0.3548553 0.37436485 0.5625 0.625
0.27716386 0.11480501 0 0.9238802 0.38268173 -1.7168333e-06 0.5625 0.5
0.106066026 0.043933973 0.27716386 0.37240928 0.15425695 0.9151591 0.5625 0.875
0.19598445 0.081179395 0.21213204 0.66413933 0.27509204 0.69515705 0.5625 0.75
0.106066026 0.043933973 -0.27716386 0.37240925 0.15425695 -0.9151591 0.5625 0.12500006
0.25606602 0.10606601 -0.11480504 0.85669386 0.35485828 -0.3743681 0.5625 0.375
0 0 0.3 -7.018687e-08 -1.1106494e-08 1 0.59375 1
0 0 -0.3 4.9362194e-09 -2.2212987e-08 -1 0.59375 0
0.21213204 -2.9802322e-08 -0.21213204 0.7188596 -6.0890486e-08 -0.69515526 0.49999997 0.25
0.11480503 -1.4901161e-08 -0.27716386 0.403091 -1.2982542e-07 -0.9151599 0.49999997 0.12500006
0.27716386 -2.2351742e-08 -0.11480504 0.92728007 3.873827e-06 -0.37436858 0.5 0.375
0.27716386 -2.2351742e-08 0.11480504 0.92728007 -3.9241036e-06 0.37436855 0.5 0.625
0 0 0.3 -7.018687e-08 -1.1106494e-08 1 0.53125 1
0.11480503 -1.4901161e-08 0.27716386 0.40309194 -6.8831594e-07 0.9151595 0.49999997 0.875
0 0 -0.3 4.9362194e-09 -2.2212987e-08 -1 0.53125 0
0.3 -2.9802322e-08 0 1 -7.5742e-09 2.5247333e-09 0.49999997 0.5
0.21213204 -2.9802322e-08 0.21213204 0.7188576 -1.5806457e-06 0.69515747 0.49999997 0.75
0.25606602 -0.10606605 -0.11480504 0.85669667 -0.35485116 -0.37436813 0.4375 0.375
0.19598442 -0.08117945 0.21213204 0.6641414 -0.27509826 0.6951526 0.43749997 0.75000006
0.25606602 -0.10606605 0.11480504 0.8566939 -0.3548543 0.3743716 0.4375 0.625
0 0 0.3 -7.018687e-08 -1.1106494e-08 1 0.46874997 1
0.106066 -0.043934 0.27716386 0.37240827 -0.15425739 0.9151595 0.43749997 0.875
0 0 -0.3 4.9362194e-09 -2.2212987e-08 -1 0.46874997 0
0.106066 -0.043934 -0.27716386 0.37240863 -0.1542562 -0.9151595 0.43749997 0.12500006
0.19598442 -0.08117945 -0.21213204 0.6641426 -0.27509534 -0.6951526 0.43749997 0.25
0.27716386 -0.11480507 0 0.92387897 -0.38268504 1.7168039e-06 0.43749997 0.5
0 0 -0.3 4.9362194e-09 -2.2212987e-08 -1 0.40624997 0
0.08117939 -0.081179425 -0.27716386 0.28502953 -0.28502882 -0.9151595 0.37499997 0.12500006
0.19598444 -0.19598448 -0.11480504 0.6556889 -0.65568316 -0.37436837 0.375 0.375
0.14999996 -0.15000002 -0.21213204 0.50830936 -0.50831187 -0.6951551 0.37499997 0.25
0.19598444 -0.19598448 0.11480504 0.65568715 -0.6556869 0.37436482 0.375 0.625
0.21213202 -0.21213208 0 0.70710546 -0.70710814 -1.711784e-06 0.375 0.5
0.14999996 -0.15000002 0.21213204 0.50830716 -0.5083141 0.6951551 0.37499997 0.75000006
0 0 0.3 -7.018687e-08 -1.1106494e-08 1 0.40624997 1
0.08117939 -0.081179425 0.27716386 0.28502867 -0.2850296 0.9151595 0.37499997 0.875
0.11480498 -0.2771639 0 0.3826832 -0.9238797 3.304876e-06 0.31249997 0.5
0.081179366 -0.19598445 0.21213204 0.2750933 -0.6641432 0.6951529 0.31249997 0.75
0.04393395 -0.10606602 -0.27716386 0.15425697 -0.37240827 -0.9151595 0.31249997 0.12500006
0.10606599 -0.25606605 -0.11480504 0.35485503 -0.8566964 -0.37436506 0.3125 0.375
0.10606599 -0.25606605 0.11480504 0.3548542 -0.85669386 0.37437165 0.3125 0.625
0 0 0.3 -7.018687e-08 -1.1106494e-08 1 0.34374994 1
0.04393395 -0.10606602 0.27716386 0.15425603 -0.3724077 0.9151599 0.31249997 0.875
0 0 -0.3 4.9362194e-09 -2.2212987e-08 -1 0.34374994 0
0.081179366 -0.19598445 -0.21213204 0.27509603 -0.6641373 -0.69515747 0.31249997 0.25
-3.3527613e-08 -0.11480501 -0.27716386 -2.54749e-07 -0.40309292 -0.91515917 0.24999997 0.125
-5.9604645e-08 -0.3 0 -2.802454e-07 -1 -3.2897274e-06 0.24999997 0.5
-5.2154064e-08 -0.27716386 -0.11480504 -4.6758385e-07 -0.92727876 -0.37437186 0.24999997 0.375
-5.2154064e-08 -0.27716386 0.11480504 -7.289998e-08 -0.92728144 0.3743649 0.24999997 0.625
0 0 0.3 -7.018687e-08 -1.1106494e-08 1 0.28124994 1
-3.3527613e-08 -0.11480501 0.27716386 -1.9473599e-07 -0.40309286 0.9151591 0.24999997 0.87500006
0 0 -0.3 4.9362194e-09 -2.2212987e-08 -1 0.28124994 0
-5.9604645e-08 -0.21213202 -0.21213204 2.8604773e-06 -0.7188578 -0.6951571 0.24999997 0.25
-5.9604645e-08 -0.21213202 0.21213204 -3.4991763e-06 -0.7188579 0.69515705 0.24999997 0.75000006
-0.10606607 -0.256066 0.11480504 -0.3548584 -0.85669357 0.3743684 0.18749997 0.625
0 0 0.3 -7.018687e-08 -1.1106494e-08 1 0.21874994 1
-0.04393401 -0.10606598 0.27716386 -0.15425725 -0.37240824 0.9151595 0.18749997 0.87500006
0 0 -0.3 4.9362194e-09 -2.2212987e-08 -1 0.21874994 0
-0.04393401 -0.10606598 -0.27716386 -0.15425634 -0.3724076 -0.9151599 0.18749997 0.125
-0.08117947 -0.1959844 -0.21213204 -0.27509776 -0.664144 -0.6951504 0.18749997 0.25
-0.114805095 -0.27716383 0 -0.38268372 -0.92387944 6.816779e-08 0.18749997 0.5
-0.08117947 -0.1959844 0.21213204 -0.27510047 -0.6641381 0.69515496 0.18749997 0.75000006
-0.10606607 -0.256066 -0.11480504 -0.35485134 -0.85669655 -0.3743682 0.18749997 0.375
0 0 -0.3 4.9362194e-09 -2.2212987e-08 -1 0.15624994 0
-0.081179425 -0.08117937 -0.27716386 -0.28502882 -0.28502935 -0.9151595 0.12499997 0.125
-0.19598448 -0.1959844 -0.11480504 -0.6556871 -0.6556869 -0.3743649 0.12499997 0.375
-0.15000004 -0.14999992 -0.21213204 -0.5083121 -0.50830936 -0.69515496 0.12499994 0.25
-0.21213208 -0.21213198 0 -0.7071059 -0.7071078 1.7673286e-06 0.12499997 0.5
-0.15000004 -0.14999992 0.21213204 -0.50831467 -0.5083097 0.6951528 0.12499994 0.75000006
-0.19598448 -0.1959844 0.11480504 -0.6556889 -0.65568316 0.37436843 0.12499997 0.62500006
0 0 0.3 -7.018687e-08 -1.1106494e-08 1 0.15624994 1
-0.081179425 -0.08117937 0.27716386 -0.2850286 -0.28502837 0.91515994 0.12499997 0.87500006
-0.10606601 -0.043933935 0.27716386 -0.3724083 -0.15425709 0.9151595 0.06249994 0.87500006
-0.19598445 -0.081179306 0.21213204 -0.66414076 -0.27509406 0.6951549 0.06249994 0.75000006
-0.10606601 -0.043933935 -0.27716386 -0.3724083 -0.15425709 -0.9151595 0.06249994 0.125
-0.27716386 -0.11480494 0 -0.9238797 -0.38268307 0 0.06249994 0.5
-0.25606602 -0.106065944 -0.11480504 -0.85669386 -0.35485414 -0.37437174 0.0625 0.375
-0.25606602 -0.106065944 0.11480504 -0.85669386 -0.35485417 0.37437174 0.0625 0.62500006
0 0 0.3 -7.018687e-08 -1.1106494e-08 1 0.09374997 1
0 0 -0.3 4.9362194e-09 -2.2212987e-08 -1 0.09374997 0
-0.19598445 -0.081179306 -0.21213204 -0.6641408 -0.2750941 -0.6951549 0.06249994 0.25
-0.114805 4.4703484e-08 -0.27716386 -0.4030919 -3.4905702e-07 -0.9151595 0 0.125
-0.27716383 8.195639e-08 -0.11480504 -0.9272802 -3.901483e-06 -0.3743683 0 0.375
-0.27716383 8.195639e-08 0.11480504 -0.9272815 6.787239e-08 0.37436485 0 0.62500006
0 0 0.3 -7.018687e-08 -1.1106494e-08 1 0.03124997 1
-0.114805 4.4703484e-08 0.27716386 -0.40309185 -3.502818e-07 0.9151595 0 0.87500006
0 0 -0.3 4.9362194e-09 -2.2212987e-08 -1 0.03124997 0
-0.212132 1.1175871e-07 -0.21213204 -0.71886003 2.0515697e-06 -0.6951549 0 0.25
-0.29999998 9.685755e-08 0 -1 2.2192596e-06 -1.6865363e-06 0 0.5
-0.212132 1.1175871e-07 0.21213204 -0.71886003 2.0528125e-06 0.6951549 0 0.75000006
-0.114805 4.4703484e-08 0.27716386 -0.40309185 -3.502818e-07 0.9151595 1 0.87500006
0 0 0.3 -7.018687e-08 -1.1106494e-08 1 0.9687499 1
-0.106065966 0.043934014 0.27716386 -0.37240854 0.15425625 0.9151595 0.93749994 0.87500006
0 0 -0.3 4.9362194e-09 -2.2212987e-08 -1 0.9687499 0
-0.114805 4.4703484e-08 -0.27716386 -0.4030919 -3.4905702e-07 -0.9151595 1 0.125
-0.106065966 0.043934014 -0.27716386 -0.37240854 0.15425624 -0.9151595 0.93749994 0.125
-0.212132 1.1175871e-07 -0.21213204 -0.71886003 2.0515697e-06 -0.6951549 1 0.25
-0.25606596 0.106066085 -0.11480504 -0.8566966 0.35485125 -0.3743683 0.93749994 0.375
-0.19598436 0.081179515 -0.21213204 -0.66413915 0.27509776 -0.69515496 0.9374999 0.25
-0.27716383 8.195639e-08 0.11480504 -0.9272815 6.787239e-08 0.37436485 1 0.62500006
-0.2771638 0.11480512 0 -0.9238788 0.38268536 1.7193287e-06 0.93749994 0.5
-0.29999998 9.685755e-08 0 -1 2.2192596e-06 -1.6865363e-06 1 0.5
-0.212132 1.1175871e-07 0.21213204 -0.71886003 2.0528125e-06 0.6951549 1 0.75000006
-0.19598436 0.081179515 0.21213204 -0.66413915 0.27509776 0.69515496 0.9374999 0.75000006
-0.27716383 8.195639e-08 -0.11480504 -0.9272802 -3.901483e-06 -0.3743683 1 0.375
-0.25606596 0.106066085 0.11480504 -0.85669386 0.35485426 0.37437174 0.93749994 0.62500006
-0.19598436 0.1959845 -0.11480504 -0.6556887 0.65568346 -0.37436834 0.87499994 0.375
-0.14999987 0.15000007 -0.21213204 -0.5083092 0.5083123 -0.695155 0.8749999 0.25
-0.19598436 0.1959845 0.11480504 -0.6556869 0.65568715 0.37436488 0.87499994 0.62500006
-0.21213195 0.2121321 0 -0.7071054 0.70710826 -1.7446058e-06 0.87499994 0.5
-0.08117935 0.081179425 0.27716386 -0.2850292 0.28502882 0.9151595 0.8749999 0.87500006
-0.14999987 0.15000007 0.21213204 -0.5083092 0.5083122 0.695155 0.8749999 0.75000006
-0.08117935 0.081179425 -0.27716386 -0.2850292 0.28502882 -0.9151595 0.8749999 0.125
0 0 0.3 -7.018687e-08 -1.1106494e-08 1 0.90624994 1
0 0 -0.3 4.9362194e-09 -2.2212987e-08 -1 0.90624994 0
-0.043933913 0.106066 -0.27716386 -0.15425694 0.37240818 -0.9151595 0.8124999 0.125
-0.10606591 0.25606602 -0.11480504 -0.3548584 0.8566937 -0.37436834 0.81249994 0.375
-0.10606591 0.25606602 0.11480504 -0.35485402 0.8566938 0.374372 0.81249994 0.62500006
0 0 0.3 -7.018687e-08 -1.1106494e-08 1 0.8437499 1
-0.043933913 0.106066 0.27716386 -0.15425688 0.37240928 0.9151591 0.8124999 0.87500006
0 0 -0.3 4.9362194e-09 -2.2212987e-08 -1 0.8437499 0
-0.08117927 0.19598445 -0.21213204 -0.27509385 0.66414076 -0.69515496 0.8124999 0.25
-0.11480492 0.2771639 0 -0.38268176 0.92388034 1.691557e-06 0.81249994 0.5
-0.08117927 0.19598445 0.21213204 -0.27509385 0.664136 0.6951596 0.8124999 0.75000006
0 0 0.3 -7.018687e-08 -1.1106494e-08 1 0.7812499 1
0 0 -0.3 4.9362194e-09 -2.2212987e-08 -1 0.78124994 0
3 0 1 2
3 3 4 5
3 6 7 8
3 9 10 11
3 12 2 1
3 0 4 13
3 3 7 14
3 9 15 6
3 11 16 17
3 18 1 19
3 4 20 13
3 14 21 22
3 15 17 23
3 1 20 19
3 14 24 4
3 15 21 7
3 24 25 20
3 22 26 27
3 23 28 29
3 20 30 19
3 22 31 24
3 23 26 21
3 17 32 28
3 33 19 30
3 30 34 35
3 27 36 31
3 29 37 26
3 28 38 39
3 40 30 35
3 25 36 34
3 26 41 27
3 28 42 29
3 41 43 36
3 37 44 45
3 39 46 47
3 48 35 49
3 36 50 34
3 37 51 41
3 39 44 42
3 34 49 35
3 52 49 53
3 50 54 55
3 51 56 57
3 47 58 44
3 50 53 49
3 51 54 43
3 44 56 45
3 47 59 60
3 56 61 57
3 60 62 58
3 55 63 53
3 57 64 54
3 58 65 56
3 60 66 67
3 68 53 63
3 55 64 69
3 69 70 63
3 64 71 72
3 62 73 65
3 67 74 75
3 76 63 70
3 64 77 69
3 61 73 71
3 62 75 78
3 78 79 73
3 75 80 81
3 82 70 83
3 72 84 77
3 73 85 71
3 75 86 78
3 70 84 83
3 71 87 72
3 88 83 89
3 84 90 91
3 79 92 85
3 81 93 86
3 84 89 83
3 85 90 87
3 86 94 79
3 81 95 96
3 93 97 98
3 91 99 89
3 90 100 101
3 93 102 94
3 96 103 97
3 104 89 99
3 91 101 105
3 94 100 92
3 105 106 99
3 100 107 101
3 98 108 102
3 97 109 110
3 111 99 106
3 105 107 112
3 100 108 113
3 98 110 114
3 115 116 117
3 118 119 120
3 121 122 123
3 124 125 126
3 127 117 128
3 121 120 119
3 126 122 129
3 127 130 124
3 123 131 132
3 125 133 134
3 128 135 136
3 123 137 120
3 125 131 122
3 128 133 130
3 117 138 135
3 139 120 137
3 132 140 137
3 134 141 131
3 136 142 133
3 135 143 144
3 145 137 140
3 132 141 146
3 133 147 134
3 136 144 148
3 147 5 141
3 142 6 8
3 144 149 9
3 150 140 2
3 146 5 0
3 147 8 3
3 144 6 148
3 146 2 140
3 0 13 1
3 3 14 4
3 6 15 7
3 0 5 4
3 3 8 7
3 9 11 15
3 4 24 20
3 14 7 21
3 15 11 17
3 1 13 20
3 14 22 24
3 15 23 21
3 24 31 25
3 22 21 26
3 23 17 28
3 20 25 30
3 22 27 31
3 23 29 26
3 30 25 34
3 27 41 36
3 29 42 37
3 25 31 36
3 26 37 41
3 28 39 42
3 41 51 43
3 37 42 44
3 36 43 50
3 37 45 51
3 39 47 44
3 34 50 49
3 50 43 54
3 51 45 56
3 47 60 58
3 50 55 53
3 51 57 54
3 44 58 56
3 56 65 61
3 60 67 62
3 55 69 63
3 57 61 64
3 58 62 65
3 55 54 64
3 69 77 70
3 64 61 71
3 62 78 73
3 64 72 77
3 61 65 73
3 62 67 75
3 78 86 79
3 72 87 84
3 73 79 85
3 75 81 86
3 70 77 84
3 71 85 87
3 84 87 90
3 79 94 92
3 81 96 93
3 84 91 89
3 85 92 90
3 86 93 94
3 93 96 97
3 91 105 99
3 90 92 100
3 93 98 102
3 91 90 101
3 94 102 100
3 105 112 106
3 100 113 107
3 98 114 108
3 105 101 107
3 100 102 108
3 98 97 110
3 121 129 122
3 124 130 125
3 127 115 117
3 121 123 120
3 126 125 122
3 127 128 130
3 123 122 131
3 125 130 133
3 128 117 135
3 123 132 137
3 125 134 131
3 128 136 133
3 132 146 140
3 134 147 141
3 136 148 142
3 132 131 141
3 133 142 147
3 136 135 144
3 147 3 5
3 142 148 6
3 146 141 5
3 147 142 8
3 144 9 6
3 146 0 2
