ply
format ascii 1.0
comment Created in Blender version 4.4.0
element vertex 72
property float x
property float y
property float z
property float nx
property float ny
property float nz
property float s
property float t
element face 58
property list uchar uint vertex_indices
end_header
0.43488282 1 -1 0 0.64253604 -0.76625556 0.3282486 0.5
0.80889416 -1 -1 0.57732606 -0.5773677 -0.57735705 0.375 0.75
-0.18916893 -1 -1 0 -0.7780313 -0.6282255 0.2502421 0.75
0.80889416 0.45772624 -0.7380503 1 -2.4812547e-08 0 0.40774375 0.5677842
0.80889416 -0.4628657 -0.7208426 1 -2.6467177e-08 0 0.40989465 0.6828581
0.43488282 1 1 0 0.6425291 0.76626146 0.625 0.45324856
0.80889416 1 -1 0.5773401 0.57735 -0.5773607 0.375 0.5
0.43488282 1 -1 0 0.64253604 -0.76625556 0.375 0.4532486
0.80889416 -0.1707915 0.60101265 1 -6.400666e-07 0 0.5751266 0.64634895
0.80889416 0.044636726 0.60948324 1 -2.5258024e-07 0 0.57618535 0.6194204
0.80889416 -1 1 0.32023698 -0.66986436 0.6698732 0.625 0.75
-0.18916893 -1 -1 0 -0.7780313 -0.6282255 0.375 0.8747579
0.43488282 1 1 0 0.6425291 0.76626146 0.6717514 0.5
0.80889416 1 1 0.296783 0.675248 0.6752481 0.625 0.5
-0.87481487 1 1 0 0.31621972 0.94868606 0.875 0.5
-0.55370736 -1 1 0 -0.6373901 0.7705413 0.8348616 0.75
0.12712198 1 1 0 0.784265 0.6204261 0.7497579 0.5
-0.55370736 -1 1 0 -0.6373901 0.7705413 0.625 0.9598615
-0.87481487 -1 -1 0 -0.7071038 0.7071098 0.375 1
-0.55370736 -1 -1 0 -0.6373933 -0.7705386 0.375 0.9598615
-0.87481487 -0.30002886 0.30002886 -1 0 0 0.53750354 0.087496385
-0.87481487 0.30002886 -0.30002886 -1 0 0 0.46249637 0.16250357
-0.87481487 -0.30002886 -0.30002886 -1 0 0 0.46249634 0.08749638
-0.87481487 -1 -1 0 0 1 0.375 0
-0.87481487 1 -1 0 0.7071037 0.7071098 0.375 0.25
-0.87481487 -1 -1 0 -0.7071038 0.7071098 0.375 0
-0.87481487 -1 1 0 0 1 0 0
-0.87481487 -1 -1 0 -0.7071038 0.7071098 0 0
-0.87481487 -1 1 0 -0.3162278 0.9486834 0 0
-0.87481487 1 -1 0 0 1 0 0
-0.87481487 1 1 0 0.31621972 0.94868606 0 0
-0.87481487 1 -1 0 0.7071037 0.7071098 0 0
-0.87481487 1 1 0 0 1 0.625 0.25
-0.87481487 -1 1 0 -0.3162278 0.9486834 0.625 0
-0.87481487 1 1 0 0.31621972 0.94868606 0.625 0.25
-0.87481487 -1 -1 -0.24254856 0 0.97013927 0.375 0
-0.87481487 1 -1 0 0 1 0.375 0.25
-0.87481487 -1 1 -0.24253887 -9.8700035e-08 0.97014177 0 0
-0.87481487 -1 -1 0 0 1 0 0
-0.87481487 1 -1 -0.24253887 9.8700035e-08 0.97014177 0 0
-0.87481487 1 1 0 0 1 0 0
-0.87481487 1 1 -0.24254856 0 0.97013927 0.625 0.25
-0.87481487 -1 1 0 0 1 0.625 0
-0.87481487 -0.8036261 -0.8036261 -1 -1.629419e-08 0 0.3995467 0.024546733
-0.87481487 -1 1 -0.24253887 -9.8700035e-08 0.97014177 0.625 0
-0.87481487 -0.8036261 0.8036261 -1 -3.5408328e-07 0 0.60045326 0.024546735
-0.87481487 0.8036261 0.8036261 -1 1.629419e-08 0 0.60045326 0.22545326
-0.87481487 1 -1 -0.24253887 9.8700035e-08 0.97014177 0.375 0.25
-0.87481487 0.8036261 -0.8036261 -1 3.5408328e-07 0 0.39954674 0.22545326
-0.87481487 0.6195246 -0.6195246 -1 -9.359257e-08 0 0.42255944 0.20244056
-0.87481487 -0.6195246 -0.6195246 -1 2.5992054e-07 0 0.4225594 0.04755942
-0.87481487 -0.6195246 0.6195246 -1 9.359257e-08 0 0.57744056 0.04755942
-0.87481487 0.6195246 0.6195246 -1 -2.5992054e-07 0 0.5774406 0.20244057
-0.87481487 -0.43443775 -0.43443775 -1 7.324546e-07 0 0.44569525 0.07069527
-0.87481487 -0.43443775 0.43443775 -1 1.3898568e-07 0 0.5543047 0.07069528
-0.87481487 0.43443775 0.43443775 -1 -7.324546e-07 0 0.5543048 0.17930472
-0.87481487 0.43443775 -0.43443775 -1 -1.3898568e-07 0 0.44569528 0.1793047
-0.87481487 0.30002886 0.30002886 -1 0 0 0.53750366 0.16250362
0.12712198 1 -1 0 0.7842555 -0.620438 0.375 0.3752421
-0.87481487 1 -1 0 0.7071037 0.7071098 0.125 0.5
-0.55370736 -1 -1 0 -0.6373933 -0.7705386 0.16513845 0.75
-0.87481487 -1 -1 0 -0.7071038 0.7071098 0.125 0.75
0.80889416 -0.035888314 0.3217529 1 -1.2325805e-07 0 0.5402191 0.629486
0.80889416 -0.03831339 0.3892306 1 -6.3753725e-07 0 0.54865384 0.62978923
-0.18916893 -1 1 0 -0.7780411 0.62821347 0.625 0.8747579
-0.18916893 -1 1 0 -0.7780411 0.62821347 0.74975795 0.75
-0.87481487 -1 1 0 -0.3162278 0.9486834 0.875 0.75
-0.87481487 -1 1 0 -0.3162278 0.9486834 0.625 1
-0.87481487 -1 -1 -0.24254856 0 0.97013927 0 0
-0.87481487 1 1 -0.24254856 0 0.97013927 0 0
0.12712198 1 1 0 0.784265 0.6204261 0.62500006 0.3752421
0.12712198 1 -1 0 0.7842555 -0.620438 0.2502421 0.5
3 0 1 2
3 3 4 1
3 5 6 7
3 8 9 10
3 10 11 1
3 12 10 13
3 14 15 16
3 17 18 19
3 20 21 22
3 23 24 25
3 26 27 28
3 29 30 31
3 32 33 34
3 35 36 23
3 37 38 26
3 39 40 29
3 41 42 32
3 43 44 45
3 46 47 48
3 49 43 50
3 51 46 52
3 53 51 54
3 55 49 56
3 21 53 22
3 20 55 57
3 34 58 24
3 59 60 61
3 0 6 1
3 6 13 3
3 3 62 4
3 4 10 1
3 1 6 3
3 5 13 6
3 8 63 9
3 9 13 10
3 10 64 11
3 12 65 10
3 14 66 15
3 17 67 18
3 20 57 21
3 23 36 24
3 26 38 27
3 29 40 30
3 32 42 33
3 35 47 36
3 37 68 38
3 39 69 40
3 41 44 42
3 43 35 44
3 46 41 47
3 49 48 43
3 51 45 46
3 53 50 51
3 55 52 49
3 21 56 53
3 20 54 55
3 34 70 58
3 59 71 60
